<mxfile host="app.diagrams.net" modified="2021-02-23T05:11:44.240Z" agent="5.0 (Windows NT 10.0; Win64; x64) AppleWebKit/537.36 (KHTML, like Gecko) Chrome/88.0.4324.182 Safari/537.36" etag="_n3R70QgrLJ9q36nAlTJ" version="14.3.2" type="github">
  <diagram id="WbwwoEoCv1SEtMULrHiH" name="Page-1">
    <mxGraphModel dx="1422" dy="706" grid="1" gridSize="10" guides="1" tooltips="1" connect="1" arrows="1" fold="1" page="1" pageScale="1" pageWidth="850" pageHeight="1100" math="0" shadow="0">
      <root>
        <mxCell id="0" />
        <mxCell id="1" parent="0" />
        <mxCell id="W1WmK1gT3JtzhS1TCmuq-1" value="&lt;font style=&quot;font-size: 29px&quot;&gt;垂直应用架构&lt;/font&gt;" style="swimlane;html=1;startSize=40;horizontal=1;containerType=tree;newEdgeStyle={&quot;edgeStyle&quot;:&quot;elbowEdgeStyle&quot;,&quot;startArrow&quot;:&quot;none&quot;,&quot;endArrow&quot;:&quot;none&quot;};" vertex="1" parent="1">
          <mxGeometry x="180" y="200" width="230" height="420" as="geometry" />
        </mxCell>
        <mxCell id="W1WmK1gT3JtzhS1TCmuq-11" style="edgeStyle=orthogonalEdgeStyle;rounded=0;orthogonalLoop=1;jettySize=auto;html=1;entryX=0.5;entryY=0;entryDx=0;entryDy=0;fontSize=20;" edge="1" parent="W1WmK1gT3JtzhS1TCmuq-1" source="W1WmK1gT3JtzhS1TCmuq-7" target="W1WmK1gT3JtzhS1TCmuq-8">
          <mxGeometry relative="1" as="geometry" />
        </mxCell>
        <mxCell id="W1WmK1gT3JtzhS1TCmuq-12" style="edgeStyle=orthogonalEdgeStyle;rounded=0;orthogonalLoop=1;jettySize=auto;html=1;entryX=0.5;entryY=0;entryDx=0;entryDy=0;fontSize=20;" edge="1" parent="W1WmK1gT3JtzhS1TCmuq-1" source="W1WmK1gT3JtzhS1TCmuq-7" target="W1WmK1gT3JtzhS1TCmuq-9">
          <mxGeometry relative="1" as="geometry" />
        </mxCell>
        <mxCell id="W1WmK1gT3JtzhS1TCmuq-13" style="edgeStyle=orthogonalEdgeStyle;rounded=0;orthogonalLoop=1;jettySize=auto;html=1;fontSize=20;" edge="1" parent="W1WmK1gT3JtzhS1TCmuq-1" source="W1WmK1gT3JtzhS1TCmuq-7" target="W1WmK1gT3JtzhS1TCmuq-10">
          <mxGeometry relative="1" as="geometry" />
        </mxCell>
        <mxCell id="W1WmK1gT3JtzhS1TCmuq-7" value="" style="ellipse;whiteSpace=wrap;html=1;" vertex="1" parent="W1WmK1gT3JtzhS1TCmuq-1">
          <mxGeometry x="55" y="70" width="120" height="50" as="geometry" />
        </mxCell>
        <mxCell id="W1WmK1gT3JtzhS1TCmuq-8" value="用&lt;br style=&quot;font-size: 20px;&quot;&gt;户&lt;br style=&quot;font-size: 20px;&quot;&gt;中&lt;br style=&quot;font-size: 20px;&quot;&gt;心" style="rounded=0;whiteSpace=wrap;html=1;fontSize=20;" vertex="1" parent="W1WmK1gT3JtzhS1TCmuq-1">
          <mxGeometry x="10" y="190" width="50" height="200" as="geometry" />
        </mxCell>
        <mxCell id="W1WmK1gT3JtzhS1TCmuq-9" value="商&lt;br style=&quot;font-size: 20px;&quot;&gt;品&lt;br style=&quot;font-size: 20px;&quot;&gt;系&lt;br style=&quot;font-size: 20px;&quot;&gt;统" style="rounded=0;whiteSpace=wrap;html=1;fontSize=20;" vertex="1" parent="W1WmK1gT3JtzhS1TCmuq-1">
          <mxGeometry x="90" y="190" width="50" height="200" as="geometry" />
        </mxCell>
        <mxCell id="W1WmK1gT3JtzhS1TCmuq-10" value="后&lt;br&gt;台&lt;br&gt;系&lt;br&gt;统" style="rounded=0;whiteSpace=wrap;html=1;fontSize=20;" vertex="1" parent="W1WmK1gT3JtzhS1TCmuq-1">
          <mxGeometry x="170" y="190" width="50" height="200" as="geometry" />
        </mxCell>
      </root>
    </mxGraphModel>
  </diagram>
</mxfile>
